<svg width="141" height="38" viewBox="0 0 141 38" fill="none" xmlns="http://www.w3.org/2000/svg">
<g filter="url(#filter0_d_6_3419)">
<path d="M3.336 7.312C5 5.664 7.088 4.84 9.6 4.84C12.112 4.84 14.2 5.664 15.864 7.312C17.528 8.944 18.36 11.04 18.36 13.6C18.36 16.16 17.528 18.264 15.864 19.912C14.2 21.544 12.112 22.36 9.6 22.36C7.088 22.36 5 21.544 3.336 19.912C1.672 18.264 0.84 16.16 0.84 13.6C0.84 11.04 1.672 8.944 3.336 7.312ZM13.944 9.136C12.824 7.968 11.376 7.384 9.6 7.384C7.824 7.384 6.376 7.968 5.256 9.136C4.136 10.304 3.576 11.792 3.576 13.6C3.576 15.408 4.136 16.896 5.256 18.064C6.376 19.232 7.824 19.816 9.6 19.816C11.376 19.816 12.824 19.232 13.944 18.064C15.064 16.896 15.624 15.408 15.624 13.6C15.624 11.792 15.064 10.304 13.944 9.136ZM42.6123 22H38.9163L31.3323 13.624V22H28.8363V5.2H31.3323V12.664L38.0043 5.2H41.4603L34.1643 12.904L42.6123 22ZM44.4949 12.232C45.6469 11.112 47.0949 10.552 48.8389 10.552C50.5829 10.552 52.0309 11.112 53.1829 12.232C54.3349 13.352 54.9109 14.76 54.9109 16.456C54.9109 18.152 54.3349 19.56 53.1829 20.68C52.0309 21.8 50.5829 22.36 48.8389 22.36C47.0949 22.36 45.6469 21.8 44.4949 20.68C43.3429 19.56 42.7669 18.152 42.7669 16.456C42.7669 14.76 43.3429 13.352 44.4949 12.232ZM51.4069 13.84C50.7509 13.184 49.8949 12.856 48.8389 12.856C47.7829 12.856 46.9189 13.184 46.2469 13.84C45.5909 14.496 45.2629 15.368 45.2629 16.456C45.2629 17.544 45.5909 18.416 46.2469 19.072C46.9189 19.728 47.7829 20.056 48.8389 20.056C49.8949 20.056 50.7509 19.728 51.4069 19.072C52.0789 18.416 52.4149 17.544 52.4149 16.456C52.4149 15.368 52.0789 14.496 51.4069 13.84ZM56.0319 22L59.0799 10.912H61.2159L63.6159 16.816H63.6639L66.0879 10.912H68.2239L71.2719 22H68.8959L66.9759 14.392H66.9279L64.4799 20.248H62.8239L60.3759 14.392H60.3279L58.4079 22H56.0319ZM83.4368 10.912V22H81.0848V13.12H75.9248V22H73.5728V10.912H83.4368ZM91.5028 22.36C89.9828 22.36 88.7028 21.824 87.6628 20.752C86.6228 19.68 86.1028 18.248 86.1028 16.456C86.1028 14.664 86.6228 13.232 87.6628 12.16C88.7028 11.088 89.9828 10.552 91.5028 10.552C93.2308 10.552 94.4788 11.216 95.2468 12.544H95.2948V10.912H97.6468V22H95.2948V20.368H95.2468C94.4788 21.696 93.2308 22.36 91.5028 22.36ZM89.5348 19.072C90.1588 19.728 90.9828 20.056 92.0068 20.056C93.0308 20.056 93.8548 19.728 94.4788 19.072C95.1028 18.4 95.4148 17.528 95.4148 16.456C95.4148 15.384 95.1028 14.52 94.4788 13.864C93.8548 13.192 93.0308 12.856 92.0068 12.856C90.9828 12.856 90.1588 13.192 89.5348 13.864C88.9108 14.52 88.5988 15.384 88.5988 16.456C88.5988 17.528 88.9108 18.4 89.5348 19.072ZM109.026 10.912H111.378V22H109.026V17.344H103.386V22H101.034V10.912H103.386V15.136H109.026V10.912ZM114.753 22V10.912H117.105V18.28H117.153L122.649 10.912H124.833V22H122.481V14.632H122.433L116.937 22H114.753ZM128.213 22V10.912H130.565V18.28H130.613L136.109 10.912H138.293V22H135.941V14.632H135.893L130.397 22H128.213Z" fill="#8BAF13"/>
</g>
<line y1="37.5" x2="50" y2="37.5" stroke="#8BAF13"/>
<defs>
<filter id="filter0_d_6_3419" x="0.839996" y="4.84009" width="139.453" height="19.52" filterUnits="userSpaceOnUse" color-interpolation-filters="sRGB">
<feFlood flood-opacity="0" result="BackgroundImageFix"/>
<feColorMatrix in="SourceAlpha" type="matrix" values="0 0 0 0 0 0 0 0 0 0 0 0 0 0 0 0 0 0 127 0" result="hardAlpha"/>
<feOffset dx="1" dy="1"/>
<feGaussianBlur stdDeviation="0.5"/>
<feComposite in2="hardAlpha" operator="out"/>
<feColorMatrix type="matrix" values="0 0 0 0 0 0 0 0 0 0 0 0 0 0 0 0 0 0 0.1 0"/>
<feBlend mode="normal" in2="BackgroundImageFix" result="effect1_dropShadow_6_3419"/>
<feBlend mode="normal" in="SourceGraphic" in2="effect1_dropShadow_6_3419" result="shape"/>
</filter>
</defs>
</svg>
