<svg width="105" height="105" viewBox="0 0 105 105" fill="none" xmlns="http://www.w3.org/2000/svg">
<path fill-rule="evenodd" clip-rule="evenodd" d="M52.5 103C80.3904 103 103 80.3904 103 52.5C103 24.6096 80.3904 2 52.5 2C24.6096 2 2 24.6096 2 52.5C2 80.3904 24.6096 103 52.5 103ZM52.5 105C81.4949 105 105 81.4949 105 52.5C105 23.5051 81.4949 0 52.5 0C23.5051 0 0 23.5051 0 52.5C0 81.4949 23.5051 105 52.5 105Z" fill="#799A0D"/>
<path d="M29.0093 45.4529L29.0093 67.0533C29.0093 69.3373 30.8688 71.2053 33.1613 71.2053H73.645C75.9375 71.2053 77.797 69.3458 77.797 67.0533V45.4529C77.797 43.1604 75.9375 41.3009 73.645 41.3009H33.1528C30.8687 41.3094 29.0093 43.1689 29.0093 45.4529ZM76.5234 45.4529V67.0533C76.5234 68.6411 75.2328 69.9317 73.645 69.9317H33.1528C31.565 69.9317 30.2744 68.6411 30.2744 67.0533L30.2744 45.4529C30.2744 43.8652 31.565 42.5746 33.1528 42.5746H73.645C75.2328 42.583 76.5234 43.8736 76.5234 45.4529Z" fill="#799A0D"/>
<path d="M24.0167 44.4001L26.3941 53.4936C26.479 53.8333 26.8272 54.037 27.1753 53.9521C27.5149 53.8672 27.7187 53.5191 27.6338 53.171L25.2564 44.0774C25.0611 43.3302 25.1715 42.5576 25.5535 41.8953C25.9441 41.233 26.5639 40.7575 27.3111 40.5707L66.4704 30.3055C68.0072 29.8979 69.5865 30.8234 69.9855 32.3517L71.845 39.4669C71.9299 39.8066 72.2865 40.0104 72.6261 39.9254C72.9658 39.8405 73.1695 39.4924 73.0846 39.1443L71.2167 32.0376C70.7242 30.1781 69.0431 28.9469 67.2006 28.9469C66.8524 28.9469 66.4958 28.9894 66.1477 29.0828L26.98 39.3311C25.9102 39.6113 25.0101 40.2906 24.4497 41.25C23.8894 42.2095 23.7365 43.3217 24.0167 44.4001Z" fill="#799A0D"/>
<path d="M66.4789 46.9728H72.7706C73.1187 46.9728 73.4074 46.6841 73.4074 46.3359C73.4074 45.9878 73.1187 45.6991 72.7706 45.6991H66.4789C66.1308 45.6991 65.8421 45.9878 65.8421 46.3359C65.8421 46.6841 66.1308 46.9728 66.4789 46.9728Z" fill="#799A0D"/>
<path d="M55.6698 46.9728H61.9615C62.3096 46.9728 62.5983 46.6841 62.5983 46.3359C62.5983 45.9878 62.3096 45.6991 61.9615 45.6991H55.6698C55.3217 45.6991 55.033 45.9878 55.033 46.3359C55.033 46.6841 55.3132 46.9728 55.6698 46.9728Z" fill="#799A0D"/>
<path d="M44.8533 46.9728H51.1449C51.493 46.9728 51.7817 46.6841 51.7817 46.3359C51.7817 45.9878 51.493 45.6991 51.1449 45.6991H44.8533C44.5052 45.6991 44.2165 45.9878 44.2165 46.3359C44.2165 46.6841 44.5052 46.9728 44.8533 46.9728Z" fill="#799A0D"/>
<path d="M34.0359 46.9728H40.3275C40.6756 46.9728 40.9643 46.6841 40.9643 46.3359C40.9643 45.9878 40.6756 45.6991 40.3275 45.6991H34.0359C33.6878 45.6991 33.3991 45.9878 33.3991 46.3359C33.3991 46.6841 33.6878 46.9728 34.0359 46.9728Z" fill="#799A0D"/>
<path d="M72.7706 65.542H60.3656C60.0175 65.542 59.7288 65.8307 59.7288 66.1788C59.7288 66.5269 60.0175 66.8156 60.3656 66.8156L72.7706 66.8156C73.1187 66.8156 73.4074 66.5269 73.4074 66.1788C73.4074 65.8307 73.1187 65.542 72.7706 65.542Z" fill="#799A0D"/>
<path d="M54.4051 62.757H72.7706C73.1187 62.757 73.4074 62.4683 73.4074 62.1202C73.4074 61.7721 73.1187 61.4834 72.7706 61.4834H54.4051C54.057 61.4834 53.7683 61.7721 53.7683 62.1202C53.7683 62.4683 54.057 62.757 54.4051 62.757Z" fill="#799A0D"/>
<path d="M33.3992 59.9551V64.4212C33.3992 65.7373 34.469 66.8156 35.7935 66.8156H43.0956C44.4116 66.8156 45.4899 65.7458 45.4899 64.4212L45.49 59.9721C45.49 58.656 44.4201 57.5777 43.0956 57.5777L35.7935 57.5777C34.4775 57.5607 33.3992 58.639 33.3992 59.9551ZM35.7935 58.8343H40.6587V61.5513H34.6728L34.6728 59.9551C34.6728 59.3353 35.1822 58.8343 35.7935 58.8343ZM34.6728 64.4212L34.6728 62.8249H36.9483V65.542H35.785C35.1822 65.542 34.6728 65.0325 34.6728 64.4212ZM43.0956 65.542H38.2304V62.8249H44.2163V64.4212C44.2163 65.0325 43.7154 65.542 43.0956 65.542ZM44.2163 59.9551V61.5513H41.9408V58.8343H43.1041C43.7154 58.8343 44.2163 59.3353 44.2163 59.9551Z" fill="#799A0D"/>
<path fill-rule="evenodd" clip-rule="evenodd" d="M73.645 40.9509C76.1308 40.9509 78.147 42.9671 78.147 45.4529V67.0533C78.147 69.5391 76.1308 71.5553 73.645 71.5553H33.1612C30.675 71.5553 28.6593 69.5301 28.6593 67.0533L28.6593 45.4529C28.6593 42.9753 30.6754 40.9601 33.1514 40.9509L33.1527 40.9509H73.645ZM77.447 45.4529C77.447 43.3537 75.7442 41.6509 73.645 41.6509H33.154C33.1538 41.6509 33.1543 41.6509 33.154 41.6509C31.0624 41.6591 29.3593 43.3627 29.3593 45.4529L29.3593 67.0533C29.3593 69.1445 31.0625 70.8553 33.1612 70.8553H73.645C75.7442 70.8553 77.447 69.1525 77.447 67.0533V45.4529ZM73.6432 42.9245C73.6428 42.9245 73.6435 42.9245 73.6432 42.9245L33.1527 42.9245C31.7583 42.9245 30.6244 44.0584 30.6244 45.4529L30.6244 67.0533C30.6244 68.4478 31.7583 69.5816 33.1527 69.5816H73.645C75.0395 69.5816 76.1734 68.4478 76.1734 67.0533V45.4529C76.1734 44.0682 75.0397 42.9325 73.6432 42.9245ZM73.6469 42.2245C75.4255 42.234 76.8734 43.6793 76.8734 45.4529V67.0533C76.8734 68.8344 75.4261 70.2816 73.645 70.2816L33.1527 70.2817C31.3717 70.2817 29.9244 68.8344 29.9244 67.0533L29.9244 45.4529C29.9244 43.6718 31.3717 42.2245 33.1527 42.2245H73.645L73.6469 42.2245ZM67.2006 28.5969C69.1977 28.5969 71.0208 29.931 71.555 31.9479L73.4247 39.0613C73.5532 39.5882 73.2456 40.1313 72.711 40.265C72.1931 40.3945 71.6407 40.0882 71.5059 39.5538L69.6469 32.4402C69.2968 31.0994 67.9095 30.2859 66.5601 30.6437L27.3999 40.9093L27.396 40.9103C26.7435 41.0734 26.2005 41.488 25.8558 42.0717C25.5196 42.6553 25.4235 43.3329 25.595 43.9889L27.9738 53.088C28.1023 53.6149 27.7947 54.158 27.2602 54.2917L27.2582 54.2921C26.732 54.4205 26.1895 54.1138 26.055 53.5804C26.0549 53.5798 26.0547 53.5791 26.0546 53.5785L23.6781 44.4886C23.3747 43.321 23.5403 42.1131 24.1475 41.0735C24.755 40.0334 25.7321 39.2961 26.8913 38.9925L66.057 28.7447C66.0574 28.7446 66.0577 28.7445 66.0581 28.7444C66.4378 28.6427 66.8247 28.5969 67.2006 28.5969ZM70.8783 32.1269C70.4274 30.425 68.8883 29.2969 67.2006 29.2969C66.8806 29.2969 66.5546 29.336 66.2384 29.4208L66.2363 29.4214L27.0687 39.6696C27.0686 39.6697 27.0687 39.6696 27.0687 39.6696C26.0883 39.9264 25.2653 40.5477 24.752 41.4265C24.2385 42.3057 24.0985 43.3227 24.3554 44.3116C24.3553 44.3115 24.3554 44.3117 24.3554 44.3116L26.7327 53.4051L26.7337 53.4087C26.7698 53.5531 26.9224 53.653 27.0914 53.6123C27.2349 53.5759 27.3341 53.4242 27.2943 53.2561C27.2941 53.2554 27.2939 53.2546 27.2937 53.2539L24.9177 44.1659C24.6988 43.3281 24.8231 42.4609 25.2504 41.7204L25.2521 41.7175C25.6882 40.9779 26.3838 40.4423 27.2242 40.2317C27.2249 40.2315 27.2256 40.2313 27.2262 40.2312L66.3806 29.9671C66.3805 29.9672 66.3808 29.9671 66.3806 29.9671M70.3242 32.2633L72.1836 39.3784L72.1845 39.382C72.2204 39.5257 72.3806 39.626 72.5412 39.5859C72.6852 39.5499 72.7849 39.3981 72.7452 39.2297L70.8783 32.1269C70.8782 32.1268 70.8783 32.127 70.8783 32.1269M72.7705 45.3491C73.312 45.3491 73.7573 45.7945 73.7573 46.3359C73.7573 46.8773 73.312 47.3227 72.7705 47.3227H66.4789C65.9375 47.3227 65.4921 46.8773 65.4921 46.3359C65.4921 45.7945 65.9375 45.3491 66.4789 45.3491H72.7705ZM73.0574 46.3359C73.0574 46.1811 72.9254 46.0491 72.7705 46.0491H66.4789C66.3241 46.0491 66.1921 46.1811 66.1921 46.3359C66.1921 46.4907 66.3241 46.6227 66.4789 46.6227H72.7705C72.9254 46.6227 73.0574 46.4907 73.0574 46.3359ZM72.7705 61.1334C73.312 61.1334 73.7573 61.5788 73.7573 62.1202C73.7573 62.6616 73.312 63.107 72.7705 63.107H54.4051C53.8637 63.107 53.4183 62.6616 53.4183 62.1202C53.4183 61.5788 53.8637 61.1334 54.4051 61.1334H72.7705ZM73.0574 62.1202C73.0574 61.9654 72.9254 61.8334 72.7705 61.8334L54.4051 61.8334C54.2503 61.8334 54.1183 61.9654 54.1183 62.1202C54.1183 62.275 54.2503 62.407 54.4051 62.407L72.7705 62.407C72.9254 62.407 73.0574 62.275 73.0574 62.1202ZM72.7705 65.1919C73.312 65.1919 73.7573 65.6373 73.7573 66.1787C73.7573 66.7202 73.312 67.1656 72.7705 67.1656H60.3656C59.8242 67.1656 59.3788 66.7202 59.3788 66.1787C59.3788 65.6373 59.8242 65.1919 60.3656 65.1919H72.7705ZM73.0574 66.1787C73.0574 66.0239 72.9254 65.8919 72.7705 65.8919H60.3656C60.2108 65.8919 60.0788 66.0239 60.0788 66.1787C60.0788 66.3336 60.2108 66.4656 60.3656 66.4656H72.7705C72.9254 66.4656 73.0574 66.3336 73.0574 66.1787ZM61.9614 45.3491C62.5029 45.3491 62.9483 45.7945 62.9483 46.3359C62.9483 46.8773 62.5029 47.3227 61.9615 47.3227H55.6698C55.1169 47.3227 54.683 46.8743 54.683 46.3359C54.683 45.7945 55.1284 45.3491 55.6698 45.3491L61.9614 45.3491ZM62.2483 46.3359C62.2483 46.1811 62.1163 46.0491 61.9614 46.0491H55.6698C55.515 46.0491 55.383 46.1811 55.383 46.3359C55.383 46.4938 55.5095 46.6227 55.6698 46.6227H61.9615C62.1163 46.6227 62.2483 46.4907 62.2483 46.3359ZM51.1449 45.3491C51.6863 45.3491 52.1317 45.7945 52.1317 46.3359C52.1317 46.8773 51.6863 47.3227 51.1449 47.3227H44.8533C44.3118 47.3227 43.8665 46.8773 43.8665 46.3359C43.8665 45.7945 44.3118 45.3491 44.8533 45.3491H51.1449ZM51.4317 46.3359C51.4317 46.1811 51.2997 46.0491 51.1449 46.0491H44.8533C44.6984 46.0491 44.5665 46.1811 44.5665 46.3359C44.5665 46.4907 44.6984 46.6227 44.8533 46.6227H51.1449C51.2997 46.6227 51.4317 46.4907 51.4317 46.3359ZM43.0956 57.2276C44.6142 57.2276 45.8399 58.4635 45.8399 59.972V64.4212C45.8399 65.9398 44.6041 67.1656 43.0956 67.1656H35.7935C34.2749 67.1656 33.0491 65.9297 33.0491 64.4212V59.9551C33.0491 58.4473 34.2831 57.2094 35.7958 57.2276C35.7966 57.2277 35.7973 57.2277 35.798 57.2277L43.0956 57.2276ZM45.1399 59.972C45.1399 58.8485 44.226 57.9276 43.0956 57.9276H35.7935L35.789 57.9276C34.6706 57.9132 33.7491 58.8314 33.7491 59.9551L33.7491 64.4212C33.7491 65.5447 34.6631 66.4656 35.7935 66.4656L43.0956 66.4656C44.2191 66.4656 45.1399 65.5516 45.1399 64.4212V59.972ZM40.3275 45.3491C40.8689 45.3491 41.3143 45.7945 41.3143 46.3359C41.3143 46.8773 40.8689 47.3227 40.3275 47.3227H34.0359C33.4945 47.3227 33.0491 46.8773 33.0491 46.3359C33.0491 45.7945 33.4945 45.3491 34.0359 45.3491H40.3275ZM40.6143 46.3359C40.6143 46.1811 40.4823 46.0491 40.3275 46.0491H34.0359C33.8811 46.0491 33.7491 46.1811 33.7491 46.3359C33.7491 46.4907 33.8811 46.6227 34.0359 46.6227L40.3275 46.6227C40.4823 46.6227 40.6143 46.4907 40.6143 46.3359ZM43.8663 59.955C43.8663 59.5268 43.5203 59.1843 43.104 59.1843H42.2908L42.2908 61.2013L43.8663 61.2013V59.955ZM43.104 58.4843C43.9104 58.4843 44.5663 59.1437 44.5663 59.955V61.9013H41.5908V58.4843L43.104 58.4843ZM44.5663 62.4749V64.4212C44.5663 65.2241 43.9104 65.892 43.0956 65.892H37.8804V62.4749H44.5663ZM43.8663 63.1749L38.5804 63.1749V65.1919H43.0956C43.5204 65.1919 43.8663 64.8409 43.8663 64.4212V63.1749ZM41.0087 58.4843V61.9013L34.3228 61.9013V59.955C34.3228 59.1402 34.9906 58.4843 35.7935 58.4843H41.0087ZM40.3087 59.1843H35.7935C35.3738 59.1843 35.0228 59.5302 35.0228 59.955V61.2013H40.3087V59.1843ZM37.2983 62.4749L37.2983 65.8919L35.785 65.892C34.9872 65.892 34.3228 65.2241 34.3227 64.4212L34.3228 62.4749H37.2983ZM36.5983 63.1749L35.0227 63.1749L35.0228 64.4212C35.0228 64.8409 35.3772 65.1919 35.785 65.1919H36.5983V63.1749Z" fill="#799A0D"/>
</svg>
