<svg width="14" height="14" viewBox="0 0 14 14" fill="none" xmlns="http://www.w3.org/2000/svg">
<path d="M6.92929 5.66071L7 5.73142L7.07071 5.66071L11.9557 0.775711C12.306 0.425402 12.874 0.425402 13.2243 0.775711C13.5746 1.12602 13.5746 1.69398 13.2243 2.04429L8.33929 6.92929L8.26858 7L8.33929 7.07071L13.2243 11.9557C13.5746 12.306 13.5746 12.874 13.2243 13.2243C12.874 13.5746 12.306 13.5746 11.9557 13.2243L7.07071 8.33929L7 8.26858L6.92929 8.33929L2.04429 13.2243C1.69398 13.5746 1.12602 13.5746 0.775711 13.2243C0.425402 12.874 0.425402 12.306 0.775711 11.9557L5.66071 7.07071L5.73142 7L5.66071 6.92929L0.775711 2.04429C0.425402 1.69398 0.425402 1.12602 0.775711 0.775711C1.12602 0.425402 1.69398 0.425402 2.04429 0.775711L6.92929 5.66071Z" fill="#1C1C1C" stroke="white" stroke-width="0.2"/>
</svg>
