<svg width="40" height="41" viewBox="0 0 40 41" fill="none" xmlns="http://www.w3.org/2000/svg">
<path fill-rule="evenodd" clip-rule="evenodd" d="M1 20.5C1 30.9934 9.50659 39.5 20 39.5C30.4934 39.5 39 30.9934 39 20.5C39 10.0066 30.4934 1.5 20 1.5C9.50659 1.5 1 10.0066 1 20.5ZM20 0.5C8.95431 0.5 0 9.45431 0 20.5C0 31.5457 8.95431 40.5 20 40.5C31.0457 40.5 40 31.5457 40 20.5C40 9.45431 31.0457 0.5 20 0.5Z" fill="#1C1C1C"/>
<path fill-rule="evenodd" clip-rule="evenodd" d="M26.6902 21.987H25.0017L28.4535 27.4112H21.5769V30.2H17.423V27.4114H10.5465L13.9983 21.9872H12.3098L15.7616 16.563H14.088L19.5 8.05877L24.912 16.5628H23.2384L26.6902 21.987ZM23.0631 15.5295L19.5 9.93051L15.9368 15.5295H17.6105L14.1586 20.9536H15.8471L12.3953 26.3777H18.4162V29.1665H20.5837V26.3777H26.6046L23.1528 20.9536H24.8413L21.3895 15.5295H23.0631Z" fill="#1C1C1C"/>
</svg>
