<svg width="18" height="18" viewBox="0 0 18 18" fill="none" xmlns="http://www.w3.org/2000/svg">
<path d="M15.234 17.1177L15.234 17.1177C15.3378 17.2215 15.461 17.3039 15.5965 17.3601C15.7321 17.4163 15.8775 17.4452 16.0242 17.4452C16.171 17.4452 16.3163 17.4163 16.4519 17.3601L16.3562 17.1291L16.4519 17.3601C16.5875 17.3039 16.7107 17.2215 16.8144 17.1177L16.6376 16.941L16.8144 17.1177C16.9182 17.0139 17.0005 16.8907 17.0567 16.7551C17.1128 16.6195 17.1417 16.4741 17.1417 16.3273C17.1417 16.1806 17.1128 16.0352 17.0567 15.8996C17.0005 15.764 16.9182 15.6408 16.8144 15.5369L16.8144 15.5369L13.2512 11.9731C14.2793 10.5587 14.7584 8.81525 14.5937 7.06911C14.422 5.24896 13.5636 3.5626 12.1931 2.3531C10.8226 1.1436 9.04301 0.501826 7.21629 0.558375C5.38958 0.614923 3.65303 1.36554 2.35992 2.65748C1.06568 3.95033 0.312941 5.68822 0.255067 7.51697C0.197192 9.34573 0.838538 11.1278 2.04843 12.4999C3.25833 13.8721 4.94573 14.7311 6.76678 14.9019C8.51388 15.0658 10.2578 14.5843 11.6715 13.553L15.234 17.1177ZM10.9446 4.23983C11.4106 4.69848 11.7812 5.24489 12.0351 5.84756C12.2889 6.45023 12.421 7.09721 12.4237 7.7512C12.4263 8.40519 12.2995 9.05323 12.0506 9.65794C11.8017 10.2627 11.4355 10.8121 10.9733 11.2745C10.511 11.7369 9.96182 12.1032 9.35737 12.3522C8.75293 12.6013 8.10518 12.7281 7.45149 12.7255C6.79781 12.7228 6.15111 12.5907 5.54872 12.3367C4.94632 12.0828 4.40013 11.712 3.94167 11.2459C3.02546 10.3142 2.51433 9.05815 2.51965 7.7512C2.52497 6.44425 3.04631 5.19237 3.97007 4.26824C4.89382 3.34412 6.14516 2.82261 7.45149 2.81729C8.75783 2.81197 10.0134 3.32326 10.9446 4.23983Z" fill="black" stroke="black" stroke-width="0.5"/>
</svg>
