<svg width="15" height="20" viewBox="0 0 15 20" fill="none" xmlns="http://www.w3.org/2000/svg">
<path fill-rule="evenodd" clip-rule="evenodd" d="M7.25 0C3.38 0 0.25 3.13 0.25 7C0.25 12.25 7.25 20 7.25 20C7.25 20 14.25 12.25 14.25 7C14.25 3.13 11.12 0 7.25 0ZM7.25 9.5C5.87 9.5 4.75 8.38 4.75 7C4.75 5.62 5.87 4.5 7.25 4.5C8.63 4.5 9.75 5.62 9.75 7C9.75 8.38 8.63 9.5 7.25 9.5Z" fill="#C2D1D9"/>
<path fill-rule="evenodd" clip-rule="evenodd" d="M7.25 0C3.38 0 0.25 3.13 0.25 7C0.25 12.25 7.25 20 7.25 20C7.25 20 14.25 12.25 14.25 7C14.25 3.13 11.12 0 7.25 0ZM7.25 9.5C5.87 9.5 4.75 8.38 4.75 7C4.75 5.62 5.87 4.5 7.25 4.5C8.63 4.5 9.75 5.62 9.75 7C9.75 8.38 8.63 9.5 7.25 9.5Z" fill="#C2D1D9"/>
<path fill-rule="evenodd" clip-rule="evenodd" d="M0.25 7C0.25 3.13 3.38 0 7.25 0C11.12 0 14.25 3.13 14.25 7C14.25 12.25 7.25 20 7.25 20C7.25 20 0.25 12.25 0.25 7ZM4.75 7C4.75 8.38 5.87 9.5 7.25 9.5C8.63 9.5 9.75 8.38 9.75 7C9.75 5.62 8.63 4.5 7.25 4.5C5.87 4.5 4.75 5.62 4.75 7Z" fill="#141312"/>
</svg>
