<svg width="25" height="16" viewBox="0 0 25 16" fill="none" xmlns="http://www.w3.org/2000/svg">
<path fill-rule="evenodd" clip-rule="evenodd" d="M22.6681 15.9999C23.4045 15.9999 24.0015 15.403 24.0015 14.6666C24.0015 13.9302 23.4045 13.3333 22.6681 13.3333H1.3348C0.598419 13.3333 0.00146484 13.9302 0.00146484 14.6666C0.00146484 15.403 0.598418 15.9999 1.3348 15.9999H22.6681Z" fill="#333333"/>
<path fill-rule="evenodd" clip-rule="evenodd" d="M22.6681 9.33341C23.4045 9.33341 24.0015 8.73646 24.0015 8.00008C24.0015 7.2637 23.4045 6.66675 22.6681 6.66675H1.3348C0.598419 6.66675 0.00146484 7.2637 0.00146484 8.00008C0.00146484 8.73646 0.598418 9.33341 1.3348 9.33341H22.6681Z" fill="#333333"/>
<path fill-rule="evenodd" clip-rule="evenodd" d="M0.00146484 1.33333C0.00146484 2.06971 0.598418 2.66667 1.3348 2.66667H22.6681C23.4045 2.66667 24.0015 2.06971 24.0015 1.33333C24.0015 0.596954 23.4045 0 22.6681 0H1.3348C0.598419 0 0.00146484 0.596954 0.00146484 1.33333Z" fill="#333333"/>
</svg>
