<svg width="105" height="105" viewBox="0 0 105 105" fill="none" xmlns="http://www.w3.org/2000/svg">
<path fill-rule="evenodd" clip-rule="evenodd" d="M52.5 103C80.3904 103 103 80.3904 103 52.5C103 24.6096 80.3904 2 52.5 2C24.6096 2 2 24.6096 2 52.5C2 80.3904 24.6096 103 52.5 103ZM52.5 105C81.4949 105 105 81.4949 105 52.5C105 23.5051 81.4949 0 52.5 0C23.5051 0 0 23.5051 0 52.5C0 81.4949 23.5051 105 52.5 105Z" fill="#799A0D"/>
<path d="M53.9821 55.9481L42.7991 48.2032L52.9707 39.8243L64.1536 47.5762L53.9821 55.9481ZM45.1663 48.1106L53.9032 54.1455L61.7936 47.6546L53.0424 41.6126L45.1663 48.1106Z" fill="#799A0D"/>
<path d="M59.9858 67.8112C59.8371 67.8123 59.6917 67.7675 59.5698 67.6829L27.2906 43.515C27.2044 43.4508 27.1338 43.3681 27.0841 43.2732C27.0344 43.1782 27.0069 43.0733 27.0037 42.9663C27.0014 42.8593 27.0234 42.7531 27.0681 42.6556C27.1128 42.5582 27.179 42.472 27.2619 42.4035L44.5994 28.1535C44.726 28.0541 44.8827 28 45.0441 28C45.2055 28 45.3622 28.0541 45.4889 28.1535L77.768 52.3001C77.8531 52.3668 77.9219 52.4517 77.9691 52.5486C78.0164 52.6455 78.041 52.7517 78.041 52.8594C78.041 52.967 78.0164 53.0733 77.9691 53.1702C77.9219 53.267 77.8531 53.352 77.768 53.4187L60.4449 67.6829C60.3111 67.7764 60.1491 67.8217 59.9858 67.8112ZM28.8543 42.9236L59.9643 66.1867L76.1684 52.8487L45.0585 29.5856L28.8543 42.9236Z" fill="#799A0D"/>
<path d="M59.9856 73.0765C59.8304 73.0765 59.6794 73.0265 59.5552 72.934L27.2904 48.7874C27.1382 48.674 27.0376 48.5053 27.0107 48.3182C26.9838 48.1311 27.0328 47.9411 27.147 47.7899C27.2611 47.6388 27.431 47.5388 27.6194 47.5121C27.8077 47.4854 27.999 47.5341 28.1512 47.6474L59.9641 71.4592L76.864 57.5441C76.9366 57.4842 77.0203 57.4391 77.1104 57.4113C77.2004 57.3836 77.2952 57.3737 77.3891 57.3823C77.483 57.3909 77.5743 57.4178 77.6577 57.4614C77.7412 57.5051 77.8152 57.5646 77.8755 57.6367C77.9357 57.7087 77.9812 57.7919 78.0091 57.8813C78.037 57.9708 78.047 58.0649 78.0383 58.1582C78.0296 58.2515 78.0026 58.3421 77.9586 58.425C77.9147 58.5079 77.8547 58.5814 77.7822 58.6413L60.4447 72.8913C60.3187 73.0052 60.156 73.0709 59.9856 73.0765Z" fill="#799A0D"/>
<path d="M59.9856 78C59.8304 78 59.6794 77.95 59.5552 77.8575L27.2904 53.7109C27.214 53.6547 27.1496 53.584 27.101 53.5029C27.0524 53.4218 27.0205 53.3319 27.0071 53.2384C26.9938 53.1449 26.9992 53.0497 27.0233 52.9584C27.0473 52.867 27.0893 52.7813 27.1469 52.7063C27.2621 52.5562 27.4326 52.4577 27.6209 52.4323C27.8091 52.4069 27.9999 52.4567 28.1512 52.5709L59.9641 76.3755L76.864 62.4675C76.9365 62.4075 77.0202 62.3623 77.1103 62.3345C77.2004 62.3067 77.2951 62.2968 77.3891 62.3054C77.483 62.314 77.5743 62.3409 77.6578 62.3846C77.7413 62.4283 77.8152 62.488 77.8754 62.5601C77.9358 62.6321 77.9813 62.7153 78.0093 62.8048C78.0373 62.8942 78.0473 62.9883 78.0386 63.0817C78.03 63.175 78.0029 63.2657 77.9589 63.3486C77.9149 63.4315 77.8548 63.5049 77.7822 63.5648L60.4447 77.8147C60.3187 77.9287 60.1559 77.9944 59.9856 78Z" fill="#799A0D"/>
<path fill-rule="evenodd" clip-rule="evenodd" d="M44.8181 28.4268L27.4849 42.6732C27.4427 42.7082 27.4088 42.7523 27.3862 42.8016C27.3638 42.8505 27.3526 42.9037 27.3536 42.9572C27.3554 43.0107 27.3693 43.0633 27.3943 43.111C27.4195 43.1592 27.4554 43.2013 27.4995 43.2342L27.5004 43.2348L59.7736 67.3983C59.8352 67.4397 59.9083 67.4618 59.9832 67.4612L59.9957 67.4611L60.0083 67.4619C60.0886 67.4671 60.1682 67.4461 60.2348 67.4025L77.5521 53.1432C77.5956 53.1091 77.6306 53.0658 77.6546 53.0167C77.6786 52.9676 77.691 52.9138 77.691 52.8594C77.691 52.805 77.6786 52.7512 77.6546 52.7021C77.6311 52.654 77.597 52.6114 77.5547 52.5776L45.2727 28.4289C45.2079 28.378 45.1274 28.35 45.0441 28.35C44.962 28.35 44.8825 28.3772 44.8181 28.4268ZM44.3833 27.8782C44.5718 27.7303 44.8046 27.65 45.0441 27.65C45.2822 27.65 45.5136 27.7293 45.7015 27.8754L77.984 52.0246C78.1106 52.1238 78.2131 52.2505 78.2837 52.3951C78.3543 52.5398 78.391 52.6985 78.391 52.8594C78.391 53.0203 78.3543 53.1791 78.2837 53.3237C78.2138 53.4669 78.1126 53.5925 77.9876 53.6913L60.6567 67.9619L60.6454 67.9699C60.4497 68.1066 60.214 68.1737 59.9759 68.1612C59.7595 68.1603 59.5483 68.094 59.3703 67.9706L59.3599 67.9633L27.0817 43.7958C26.9535 43.7003 26.848 43.577 26.774 43.4354C26.6998 43.2936 26.6587 43.137 26.6538 42.9771L26.6537 42.9739C26.6503 42.8139 26.6832 42.6552 26.75 42.5097C26.8167 42.3642 26.9155 42.2357 27.0389 42.1337L27.0397 42.1331L44.3833 27.8782ZM45.0481 29.1408L76.7352 52.8355L59.9747 66.6315L28.2876 42.9368L45.0481 29.1408ZM45.0689 30.0304L29.4211 42.9104L59.9539 65.7419L75.6016 52.8619L45.0689 30.0304ZM52.9525 39.3858L64.7334 47.5523L54.0003 56.3865L42.2193 48.2275L52.9525 39.3858ZM52.9889 40.2628L43.379 48.1791L53.9639 55.5098L63.5738 47.6002L52.9889 40.2628ZM53.0236 41.1744L62.3743 47.6302L53.9216 54.5836L44.5863 48.1354L53.0236 41.1744ZM53.0612 42.0509L45.7463 48.0859L53.8848 53.7074L61.213 47.6791L53.0612 42.0509ZM27.9416 47.9278C27.8638 47.8699 27.7655 47.8449 27.6686 47.8587C27.5714 47.8724 27.4844 47.9239 27.4263 48.0009C27.3682 48.0777 27.3436 48.174 27.3572 48.2684C27.3708 48.3629 27.4217 48.4488 27.4995 48.5068L59.7644 72.6534C59.8264 72.6996 59.9019 72.7253 59.9799 72.7265C60.0656 72.7224 60.147 72.6887 60.21 72.6317L60.2161 72.6262L77.5594 58.3714C77.5965 58.3408 77.6271 58.3032 77.6494 58.2611C77.6717 58.219 77.6854 58.1731 77.6898 58.1258C77.6942 58.0786 77.6892 58.031 77.675 57.9857C77.6609 57.9403 77.6378 57.8981 77.607 57.8613C77.5763 57.8246 77.5384 57.794 77.4955 57.7716C77.4527 57.7492 77.4056 57.7353 77.3572 57.7309C77.3087 57.7264 77.2598 57.7315 77.2134 57.7458C77.167 57.7601 77.124 57.7833 77.0869 57.814L59.9744 71.9041L27.9416 47.9278ZM27.5702 47.1656C27.8497 47.1259 28.1339 47.1981 28.3603 47.3668L59.9538 71.0143L76.6412 57.2742C76.7492 57.1851 76.8736 57.1181 77.0073 57.0768C77.1411 57.0356 77.2816 57.021 77.421 57.0338C77.5604 57.0465 77.6959 57.0865 77.8199 57.1513C77.944 57.2162 78.0541 57.3048 78.1439 57.4121C78.2337 57.5194 78.3015 57.6434 78.3432 57.777C78.3849 57.9107 78.3997 58.0512 78.3868 58.1905C78.3739 58.3299 78.3334 58.4653 78.2679 58.589C78.2023 58.7126 78.113 58.8221 78.0051 58.9112L60.6727 73.157C60.4861 73.3229 60.2469 73.4181 59.9972 73.4264L59.9856 73.4268C59.7553 73.4268 59.5309 73.3524 59.3462 73.2147L27.0814 49.0681C26.8552 48.8994 26.7045 48.6475 26.6643 48.368C26.6241 48.0884 26.6974 47.8045 26.8677 47.5791C27.0378 47.3537 27.2907 47.2053 27.5702 47.1656ZM27.9404 52.8503C27.8629 52.7919 27.7648 52.7661 27.6676 52.7792C27.5705 52.7923 27.4832 52.843 27.4246 52.9194C27.3952 52.9576 27.3739 53.0011 27.3618 53.0474C27.3496 53.0936 27.3469 53.1417 27.3536 53.1889C27.3604 53.2362 27.3765 53.2817 27.4012 53.3229C27.4259 53.3641 27.4587 53.4002 27.4978 53.429L27.5001 53.4307L59.7643 77.5768C59.8264 77.6231 59.9018 77.6488 59.9798 77.65C60.0656 77.6458 60.1469 77.6122 60.2099 77.5552L60.2161 77.5496L77.5597 63.2946C77.5968 63.264 77.6274 63.2266 77.6497 63.1845C77.6721 63.1424 77.6858 63.0965 77.6901 63.0493C77.6945 63.0022 77.6895 62.9546 77.6753 62.9093C77.6611 62.864 77.6381 62.8218 77.6073 62.7851C77.5766 62.7483 77.5382 62.7171 77.4954 62.6947C77.4526 62.6723 77.4056 62.6584 77.3572 62.654C77.3087 62.6495 77.2599 62.6546 77.2135 62.6689C77.1672 62.6833 77.1243 62.7065 77.0872 62.7372L59.9744 76.8203L27.9415 52.8512L27.9404 52.8503ZM28.3613 52.291C28.1363 52.1215 27.8533 52.0478 27.5741 52.0854C27.2947 52.1231 27.0411 52.2694 26.8693 52.4931" fill="#799A0D"/>
</svg>
