<svg width="21" height="14" viewBox="0 0 21 14" fill="none" xmlns="http://www.w3.org/2000/svg">
<path d="M2.03182 0C1.04385 0 0.25 0.812528 0.25 1.8047V12.1875C0.25 13.1797 1.04385 14 2.03182 14H18.8318C19.8198 14 20.6136 13.1797 20.6136 12.1875V1.8047C20.6136 0.812528 19.8198 0 18.8318 0H2.03182ZM2.03182 0.5H18.8318C19.1499 0.5 19.4363 0.624972 19.6591 0.820297L11.2352 8.6797C10.7686 9.1149 10.1116 9.10685 9.64431 8.67195L1.20455 0.820374C1.42737 0.625049 1.71374 0.5 2.03182 0.5ZM0.902273 1.22655L7.19431 7.08595L1.08521 13.0703C0.88364 12.8389 0.759091 12.528 0.759091 12.1875V1.8047C0.759091 1.59198 0.817255 1.40197 0.902273 1.22655ZM19.9614 1.22655C20.0464 1.40197 20.1045 1.59198 20.1045 1.8047V12.1875C20.1045 12.528 19.98 12.8389 19.7784 13.0703L13.6852 7.07812L19.9614 1.22655ZM13.3193 7.42188L19.3648 13.375C19.2016 13.4526 19.024 13.5 18.8318 13.5H2.03182C1.83961 13.5 1.66204 13.4526 1.49885 13.375L7.56024 7.4297L9.2943 9.03905C9.94263 9.6426 10.9373 9.6433 11.5852 9.03905L13.3193 7.42188Z" fill="black"/>
</svg>
