<svg width="20" height="16" viewBox="0 0 20 16" fill="none" xmlns="http://www.w3.org/2000/svg">
<path fill-rule="evenodd" clip-rule="evenodd" d="M16.625 0.125H2.625C1.17955 0.125 0.00874966 1.30393 0.00874966 2.75L0 13.2493C0 14.6957 1.17925 15.875 2.625 15.875H16.625C18.0707 15.875 19.25 14.6957 19.25 13.25V2.75C19.25 1.30425 18.0707 0.125 16.625 0.125ZM3.92356 5.37513C3.50963 5.12573 3.37626 4.58801 3.62566 4.17409C3.87506 3.76017 4.41278 3.62679 4.8267 3.87619L9.59935 6.75184L14.5791 3.75139C14.9937 3.50159 15.5323 3.63517 15.7821 4.04976C16.0313 4.46341 15.899 5.00072 15.4862 5.25128L9.63371 8.80326L9.62824 8.81235L3.92356 5.37513Z" fill="#141312"/>
<path fill-rule="evenodd" clip-rule="evenodd" d="M16.625 0.125H2.625C1.17955 0.125 0.00874966 1.30393 0.00874966 2.75L0 13.2493C0 14.6957 1.17925 15.875 2.625 15.875H16.625C18.0707 15.875 19.25 14.6957 19.25 13.25V2.75C19.25 1.30425 18.0707 0.125 16.625 0.125ZM3.92356 5.37513C3.50963 5.12573 3.37626 4.58801 3.62566 4.17409C3.87506 3.76017 4.41278 3.62679 4.8267 3.87619L9.59935 6.75184L14.5791 3.75139C14.9937 3.50159 15.5323 3.63517 15.7821 4.04976C16.0313 4.46341 15.899 5.00072 15.4862 5.25128L9.63371 8.80326L9.62824 8.81235L3.92356 5.37513Z" fill="#141312"/>
</svg>
