<svg width="21" height="16" viewBox="0 0 21 16" fill="none" xmlns="http://www.w3.org/2000/svg">
<path d="M1.98759 0.808222C1.04504 0.808222 0.287675 1.64301 0.287675 2.66237V13.3296C0.287675 14.349 1.04504 15.1918 1.98759 15.1918H18.0153C18.9579 15.1918 19.7153 14.349 19.7153 13.3296V2.66237C19.7153 1.64301 18.9579 0.808222 18.0153 0.808222H1.98759ZM1.98759 1.32192H18.0153C18.3188 1.32192 18.592 1.45032 18.8046 1.65099L10.7679 9.72573C10.3227 10.1728 9.69594 10.1646 9.25015 9.71776L1.19834 1.65107C1.41093 1.4504 1.68413 1.32192 1.98759 1.32192ZM0.909965 2.06837L6.91277 8.08831L1.0845 14.2366C0.892188 13.9989 0.773364 13.6794 0.773364 13.3296V2.66237C0.773364 2.44382 0.828855 2.2486 0.909965 2.06837ZM19.093 2.06837C19.1741 2.2486 19.2296 2.44382 19.2296 2.66237V13.3296C19.2296 13.6794 19.1107 13.9989 18.9184 14.2366L13.1053 8.08027L19.093 2.06837ZM12.7562 8.43344L18.5238 14.5497C18.3681 14.6294 18.1987 14.6781 18.0153 14.6781H1.98759C1.80422 14.6781 1.63481 14.6294 1.47912 14.5497L7.26189 8.44148L8.91624 10.0949C9.53477 10.715 10.4837 10.7157 11.1018 10.0949L12.7562 8.43344Z" fill="#1C1C1C"/>
<path fill-rule="evenodd" clip-rule="evenodd" d="M0.00146484 2.66237C0.00146484 1.47745 0.882664 0.5 1.98759 0.5H18.0153C19.1203 0.5 20.0015 1.47745 20.0015 2.66237V13.3296C20.0015 14.5128 19.1219 15.5 18.0153 15.5H1.98759C0.881074 15.5 0.00146484 14.5128 0.00146484 13.3296V2.66237ZM1.66491 1.69753L9.4451 9.49209C9.78381 9.83159 10.2402 9.83423 10.5727 9.50031L18.3385 1.69771C18.2373 1.65404 18.1286 1.63014 18.0153 1.63014H1.98759C1.87456 1.63014 1.76604 1.65397 1.66491 1.69753ZM1.05984 2.63984C1.05966 2.64733 1.05957 2.65483 1.05957 2.66237V13.3296C1.05957 13.4797 1.08747 13.6219 1.13694 13.7498L6.49842 8.09395L1.05984 2.63984ZM13.5191 8.0862L18.8663 13.7491C18.9156 13.6214 18.9434 13.4794 18.9434 13.3296V2.66237C18.9434 2.65497 18.9433 2.6476 18.9431 2.64024L13.5191 8.0862ZM12.7509 8.86029L11.297 10.3203C10.5689 11.0516 9.44979 11.0506 8.72154 10.3208M8.72154 10.3208L7.26735 8.86744L2.05807 14.3699H17.9464L12.7509 8.86029" fill="#1C1C1C"/>
</svg>
