<svg width="23" height="18" viewBox="0 0 23 18" fill="none" xmlns="http://www.w3.org/2000/svg">
<path d="M22.1669 8.34492L13.3582 0.73489C12.9541 0.385667 12.3433 0.431517 11.9954 0.834666C11.6462 1.23871 11.6907 1.84861 12.0948 2.19787L18.8468 8.03026H0.967764C0.434276 8.03026 0.00146484 8.46262 0.00146484 8.99656C0.00146484 9.5305 0.434276 9.96286 0.967764 9.96286H19.0896L15.241 13.3979L12.2347 15.7755C11.8167 16.1067 11.7448 16.7144 12.076 17.1333C12.2666 17.3742 12.5497 17.5 12.8351 17.5C13.045 17.5 13.2567 17.4321 13.4342 17.2915L16.4837 14.8766L22.1782 9.7966C22.3858 9.61188 22.5036 9.34626 22.5018 9.06806C22.4991 8.78985 22.3781 8.5265 22.1669 8.34492Z" fill="#1C1C1C"/>
</svg>
