<svg width="18" height="18" viewBox="0 0 18 18" fill="none" xmlns="http://www.w3.org/2000/svg">
<path d="M15.7368 16.7018C15.6119 16.8131 15.4913 16.9206 15.3819 17.0251C15.0561 17.3358 14.5019 17.5 13.7788 17.5C11.655 17.5 8.08661 16.1176 4.89975 13.0265C2.98529 11.1345 1.51549 8.92768 0.761044 6.8126C0.0695305 4.87365 0.0804768 3.29777 0.789774 2.59692C0.932844 2.45537 1.0894 2.27789 1.25534 2.08978C1.87962 1.38141 2.65674 0.5 3.65472 0.5C4.28662 0.5 4.90092 0.861525 5.48083 1.57453C7.44044 3.98258 7.17462 4.60405 5.84222 5.90029C5.76795 5.97251 5.69036 6.04802 5.61003 6.1274C5.27815 6.45551 6.10276 8.24325 7.92164 10.0408C9.24193 11.3454 10.8081 12.3291 11.5647 12.3291C11.7404 12.3291 11.7969 12.2739 11.8154 12.2558C11.8987 12.1745 11.9792 12.0924 12.0584 12.012C12.5394 11.5231 13.0368 11.0175 13.7895 11.0175C14.4666 11.0175 15.2314 11.4416 16.1963 12.3521C16.9146 13.0302 17.2592 13.6851 17.2498 14.3542C17.2355 15.3639 16.4045 16.1057 15.7368 16.7018ZM15.6563 12.9106C14.8573 12.1565 14.2467 11.7898 13.7895 11.7898C13.3877 11.7898 13.083 12.0787 12.6192 12.5503C12.5365 12.6345 12.4522 12.72 12.3653 12.805C12.2269 12.9402 11.9755 13.1016 11.5647 13.1016C10.4242 13.1016 8.63563 11.8386 7.3689 10.587C6.531 9.75907 5.77792 8.80215 5.30238 7.96148C4.67107 6.84524 4.58859 6.04436 5.05729 5.58105C5.13918 5.50014 5.21814 5.42327 5.29398 5.34969C6.36095 4.31166 6.55309 4.12472 4.87161 2.0585C4.44747 1.53688 4.038 1.27249 3.65472 1.27249C3.01246 1.27249 2.39229 1.97623 1.84483 2.59712C1.6699 2.79545 1.50474 2.98278 1.34251 3.14327C0.964508 3.51657 0.851927 4.74387 1.49829 6.55594C2.21462 8.56441 3.61895 10.6683 5.45015 12.478C8.47692 15.4135 11.8141 16.7275 13.779 16.7275C14.4914 16.7275 14.7576 16.5469 14.8389 16.4693C14.9542 16.3592 15.0813 16.2459 15.2128 16.1284C15.7966 15.607 16.4586 15.0163 16.468 14.3432C16.4741 13.907 16.201 13.4249 15.6563 12.9106Z" fill="#464646"/>
</svg>
