<svg width="19" height="18" viewBox="0 0 19 18" fill="none" xmlns="http://www.w3.org/2000/svg">
<path d="M9.8916 0C14.8622 0 18.8916 4.02959 18.8916 9C18.8916 13.9704 14.8622 18 9.8916 18C4.92098 18 0.891602 13.9704 0.891602 9C0.891602 4.02959 4.92098 0 9.8916 0ZM9.8916 3.59995C9.56013 3.59995 9.29165 3.86864 9.29165 4.19989V8.7562L6.49801 11.5498C6.26364 11.7842 6.26364 12.1592 6.49801 12.3936C6.73239 12.628 7.10739 12.628 7.34176 12.3936L10.2292 9.49677C10.3717 9.36033 10.4673 9.23205 10.4916 8.99998V4.19987C10.4916 3.8684 10.2229 3.59992 9.89162 3.59992L9.8916 3.59995Z" fill="#141312"/>
</svg>
