<svg width="18" height="18" viewBox="0 0 18 18" fill="none" xmlns="http://www.w3.org/2000/svg">
<path d="M11.2905 11.4127H6.89922C3.58686 11.4127 0.880195 13.9181 0.615206 17.0917C0.596278 17.3144 0.766628 17.5 0.993761 17.5C1.18304 17.5 1.35339 17.3515 1.37232 17.1659C1.59945 14.345 3.98435 12.155 6.89922 12.155H11.3094C14.2243 12.155 16.6092 14.3635 16.8552 17.1474C16.8742 17.333 17.0256 17.4814 17.2338 17.4814C17.4609 17.4814 17.6313 17.2959 17.6123 17.0731C17.3284 13.8996 14.6028 11.4127 11.2905 11.4127ZM9.09484 9.16703C11.5365 9.16703 13.505 7.21834 13.505 4.84279C13.505 2.46725 11.5365 0.5 9.09484 0.5C6.65316 0.5 4.68467 2.44869 4.68467 4.84279C4.68467 7.2369 6.65316 9.16703 9.09484 9.16703ZM9.09484 1.24236C11.1201 1.24236 12.7479 2.85699 12.7479 4.82424C12.7479 6.81004 11.1012 8.40611 9.09484 8.40611C7.0885 8.40611 5.44178 6.81004 5.44178 4.84279C5.44178 2.85699 7.06957 1.24236 9.09484 1.24236Z" fill="#1C1C1C"/>
</svg>
